<?xml version="1.0" encoding="UTF-8"?> <svg xmlns="http://www.w3.org/2000/svg" xmlns:xlink="http://www.w3.org/1999/xlink" width="1755px" height="1189px" viewBox="0 0 1755 1189" version="1.1"><!-- Generator: Sketch 60.1 (88133) - https://sketch.com --><title>17@2x</title><desc>Created with Sketch.</desc><defs><rect id="path-1" x="0" y="0" width="389" height="755"></rect></defs><g id="Page-1" stroke="none" stroke-width="1" fill="none" fill-rule="evenodd"><g id="17" transform="translate(-13.000000, 0.000000)"><path d="M1672.05962,947.176801 C1670.99351,1044.60207 1652.261,1093.126 1637.9996,1102.71104 C1623.7382,1112.29608 1646.70602,1106.92743 1705.33621,1076.57481 L1714.742,945.927358 L1672.05962,947.176801 Z" id="Shape-Copy-5" stroke="#372898" stroke-width="2" fill="#FFFFFF" transform="translate(1674.316595, 1026.480067) rotate(-43.000000) translate(-1674.316595, -1026.480067) "></path><polygon id="Path-3" fill="#FFFFFF" transform="translate(621.989756, 154.300896) rotate(-11.000000) translate(-621.989756, -154.300896) " points="606.214199 143.34147 605.056687 165.018881 638.922825 171.601792 636.480282 137"></polygon><rect id="Rectangle-Copy-6" stroke="#372898" stroke-width="2" fill="#FFFFFF" stroke-linecap="round" x="234.056687" y="148" width="189" height="287"></rect><g id="Group-13" transform="translate(600.556687, 559.500000) scale(-1, 1) translate(-600.556687, -559.500000) translate(418.056687, 68.000000)"><path d="M142.5,464.522168 C136.607106,537.00105 121.765187,766.620398 103,887.022168 C96.5353852,928.500628 79.8395986,963.115587 76.1854103,965.571554 C61.9240122,975.156592 84.1084093,964.772801 142.738602,934.420181 L249,455.022168" id="Shape-Copy-20" stroke="#372898" stroke-width="2" fill="#FFFFFF" transform="translate(160.500000, 712.022168) scale(-1, 1) translate(-160.500000, -712.022168) "></path><path d="M116.341497,336.146258 L66,462 L66,462 L168.001221,494.022168 L220,499.5 L267.939773,378.691772 C277.295315,355.115806 277.342386,328.865613 268.071454,305.256247 L261.500311,288.522168 L261.500311,288.522168 L229.5,238 L134.001552,238.022168 L118.749577,327.597702 C118.251263,330.524319 117.444058,333.389854 116.341497,336.146258 Z" id="Path-Copy-7" stroke="#372898" stroke-width="2" fill="#FFFFFF" stroke-linecap="round" transform="translate(174.250000, 368.750000) scale(-1, 1) translate(-174.250000, -368.750000) "></path><path d="M125.517978,98 C125.652869,98 125.787021,98.0031638 125.920364,98.0094211 L149.432211,98.0221681 L196.873853,98.0221681 C200.050555,98.0221681 203.115655,98.499991 206.001203,99.3876859 L206,99 C216.350708,100.881947 225.14858,107.661171 229.606766,117.190256 C243.955015,147.858722 258.303265,178.527187 272.651515,209.195652 C272.651515,209.195652 290.585859,184.797101 326.454545,136 L365,162.543478 L285.5,278.369565 C272.983693,288.156298 254.903506,285.943541 245.116773,273.427234 C243.201917,270.978313 241.696644,268.235217 240.659507,265.304648 L218.801,203.541 L214.429066,238.522168 L120,238.5 L113.821708,166.16 L90.6268041,260.059222 L165,344 L142,357.5 L52.6432532,290.05284 C43.7505403,283.340552 39.6836005,271.994674 42.287143,261.161543 L74.5480884,126.926345 C78.3711756,111.018787 91.9501184,99.5120599 108.012319,98.1380098 L108,98 L110.974938,98.000991 C111.066562,98.0003307 111.158249,98 111.25,98 L125.517978,98 Z" id="Combined-Shape" fill="#89B922"></path><path d="M174.47414,981.805633 L174.47414,981.805633 L174.47414,981.805633 L243.113971,982.012166 C245.241906,982.018569 247.284711,981.176927 248.790551,979.673398 L266.10812,962.382404 L266.10812,962.382404 L263.618066,981.805633 L285,981.805633 L281.89111,932.489434 C281.697351,929.415848 279.148023,927.022168 276.068335,927.022168 L276.068335,927.022168 L276.068335,927.022168 C253.609748,939.972232 236.345375,949.10281 224.275216,954.4139 C212.205058,959.724991 209.216993,959.724991 215.311022,954.4139 L180.469254,966.150564 C174.778095,968.067665 171.718617,974.235379 173.635719,979.926539 C173.855167,980.577997 174.135897,981.207178 174.47414,981.805633 Z" id="Path-3-Copy-14" fill="#372898" transform="translate(226.500000, 954.522168) scale(-1, 1) translate(-226.500000, -954.522168) "></path><path d="M26.1379638,962.022168 L14.0688615,971.25709 C11.4371813,973.270774 10.9361966,977.036586 12.9498807,979.668266 C14.0851562,981.151955 15.8467553,982.022168 17.7149591,982.022168 L56.728548,982.022168 L56.728548,982.022168 L77.3442637,954.522168 L88.8907824,927.022168 L99.9352784,939.022168 L116,922.022168 L88.9821383,886.801748 C88.3098387,885.925344 87.0543667,885.759881 86.1779611,886.432179 C85.8949796,886.649256 85.6751939,886.938056 85.5413779,887.268653 C71.9417762,920.86694 61.5117257,942.118112 54.2512265,951.022168 C46.7595794,960.209697 37.3884919,963.876364 26.1379638,962.022168 Z" id="Path-3-Copy-15" fill="#372898" transform="translate(58.000000, 933.022168) scale(-1, 1) translate(-58.000000, -933.022168) "></path><path d="M144.032659,98.0221681 L141,74.0221681 M171,66.0221681 L179.032659,98.0221681" id="Shape-Copy-21" stroke="#372898" stroke-width="2" stroke-linecap="round" transform="translate(160.500000, 82.022168) scale(-1, 1) translate(-160.500000, -82.022168) "></path><polygon id="Path-11-Copy-7" fill="#372898" transform="translate(168.000000, 85.022168) scale(-1, 1) translate(-168.000000, -85.022168) " points="159.028538 98.0221681 180 72.0221681 156 75.0221681"></polygon><g id="Group-3" transform="translate(144.055927, 46.231558) scale(-1, 1) rotate(-11.000000) translate(-144.055927, -46.231558) translate(91.055927, 9.731558)"><path d="M69.3775447,62.3914306 C78.6871077,62.3914306 84.9572194,57.1941309 89.5499585,49.8397065 C92.0412248,45.8504031 95.3775447,41.4412711 95.3775447,36.3914306 C95.3775447,22.0320271 83.7369482,10.3914306 69.3775447,10.3914306 C62.2342238,10.3914306 57.0423648,14.2455656 52.343062,18.908672 C47.5958921,23.6192766 43.3775447,29.175348 43.3775447,36.3914306 C43.3775447,50.7508341 55.0181412,62.3914306 69.3775447,62.3914306 Z" id="Oval-Copy-7" fill="#372898" transform="translate(69.377545, 36.391431) rotate(-32.000000) translate(-69.377545, -36.391431) "></path><path d="M21.9494954,4.47232456 C37.8401925,1.53498688 50.9671535,12.6600947 52.7850742,27.7794973 C56.431193,29.3448672 59,33.1074456 59,37.5 C59,43.2989899 54.5228475,48 49,48 C48.6845065,48 48.3724254,47.9846593 48.0643963,47.9546495 C42.5378597,56.4050541 32.9064424,62 21.9494954,62 C4.80077497,62 7.27595761e-12,51.4616241 7.27595761e-12,34.5556044 C7.27595761e-12,17.6495846 4.81818225,7.63898559 21.9494954,4.47232456 Z" id="Combined-Shape-Copy-5" stroke="#372898" stroke-width="2" fill="#FFFFFF"></path><path d="M13.1945595,7.5 C18.7591176,2.87007326 24.6404513,3.59278558 27.6945595,4 C32.6945595,4.66666667 36.8612261,5.83333333 40.1945595,7.5 C43.767534,9.37097833 46.2271632,11.3601175 47.5734472,13.4674175 C48.9197312,15.5747176 50.6132411,19.0173189 52.6539771,23.7952215 L52.6539771,23.7952215 L52.6502265,28.721374 C51.3110927,28.3239329 50.3258704,28.0834749 49.6945595,28 C49.0632485,27.9165251 48.2299152,27.9165251 47.1945595,28 C47.0950495,28.0288233 46.9985005,28.0578197 46.9049124,28.0869893 C44.1733208,28.4572727 41.8099477,29.9896632 40.3294779,32.1700514 L35.1030555,23.7952215 L2.19455945,19.5 C3.89147566,16.2214642 5.05814232,14.0547975 5.69455945,13 C8.03206767,9.12581476 11.3683842,9.01944814 13.1945595,7.5 Z" id="Combined-Shape-Copy-6" fill="#372898"></path></g><polygon id="Path-5-Copy-4" fill="#372898" transform="translate(230.500000, 521.022168) scale(-1, 1) translate(-230.500000, -521.022168) " points="258 487.865163 224.811236 569.022168 203 473.022168"></polygon><polygon id="Path-6-Copy-2" fill="#372898" transform="translate(132.500000, 768.022168) scale(-1, 1) translate(-132.500000, -768.022168) " points="115 810.022168 150 753.183845 133.750366 726.022168"></polygon></g><g id="Combined-Shape" transform="translate(422.056687, 433.000000)"><mask id="mask-2" fill="white"><use xlink:href="#path-1"></use></mask><use id="Mask" fill="#CAD9FF" xlink:href="#path-1"></use><g mask="url(#mask-2)" id="Group-8"><g transform="translate(214.304658, 383.866856) rotate(-101.000000) translate(-214.304658, -383.866856) translate(-197.195342, 102.366856)"><g transform="translate(0.261610, 0.024793)"><path d="M176.315643,324.096529 C124.176052,195.048432 74.6438409,126.804989 27.7190103,119.366201 C-42.6682356,108.208019 -56.5583755,195.985087 13.8288703,207.143269 C84.2161162,218.301451 304.746808,277.579868 329.695243,204.931082 C346.327533,156.498558 319.533259,114.220374 249.31242,78.0965294" id="Path-23" stroke="#FFFFFF" stroke-width="2" transform="translate(150.972844, 201.096529) rotate(81.000000) translate(-150.972844, -201.096529) "></path><path d="M689.466719,400.030153 C637.290307,271.131855 587.728651,202.965392 540.781751,195.530764 C470.361401,184.37882 456.473891,272.048966 526.894241,283.200909 C597.314591,294.352852 817.951477,353.582492 842.903846,281.023571 C859.538758,232.650957 831.140961,190.505816 757.710456,154.588148 L748.599234,140.030153" id="Path-23-Copy-2" stroke="#FFFFFF" stroke-width="2" transform="translate(664.012501, 270.030153) rotate(81.000000) translate(-664.012501, -270.030153) "></path><path d="M395.388671,235.811431 C449.164815,367.429296 499.525833,436.983097 546.471726,444.472834 C616.890566,455.70744 630.795137,367.277045 560.376297,356.042439 C489.957458,344.807833 269.329996,285.10932 244.363384,358.300068 C227.718976,407.093901 256.108892,449.597688 329.53313,485.811431" id="Path-23-Copy" stroke="#FFFFFF" stroke-width="2" transform="translate(423.249631, 360.811431) rotate(81.000000) translate(-423.249631, -360.811431) "></path></g></g></g></g><path d="M325.943313,1088.5 C332.048651,1117.09067 337.215318,1132.09067 341.443313,1133.5 C345.671308,1134.90933 350.004641,1123.076 354.443313,1098 L459.776058,775.094699 C466.455776,754.617531 455.270732,732.602525 434.793564,725.922807 C430.888414,724.648935 426.806534,724 422.698865,724 L241,724 L241,724 L368.217304,804.619967 L325.943313,1088.5 Z" id="Combined-Shape-Copy-7" stroke="#372898" stroke-width="2" fill="#FFFFFF" transform="translate(351.354702, 928.806245) rotate(-27.000000) translate(-351.354702, -928.806245) "></path><g id="Group-6" transform="translate(287.500000, 665.500000) scale(-1, 1) translate(-287.500000, -665.500000) translate(176.000000, 608.000000)"><rect id="Rectangle-Copy-3" stroke="#372898" stroke-width="2" fill="#FFFFFF" stroke-linecap="round" x="68" y="100" width="155" height="15"></rect><polygon id="Rectangle-Copy-4" stroke="#372898" stroke-width="2" fill="#FFFFFF" stroke-linecap="round" points="0 0 152.5 0 180.5 115 31 115"></polygon><polygon id="Rectangle-Copy-4" fill="#89B922" points="9.75 7.5 144.930055 7.5 166.020776 91.5 33.5 91.5"></polygon><polygon id="Rectangle-Copy-5" stroke="#372898" stroke-width="2" fill="#FFFFFF" stroke-linecap="round" points="27 100 223 100 223 115 30.4713376 115"></polygon></g><path d="M195.177926,656.574823 C193.535885,657.527106 192.605657,659.354465 192.801819,661.242497 L193.819852,671.040918 C197.339247,676.167863 200.212762,680.812456 202.440398,684.974699 C202.874726,685.786224 203.306495,686.620503 203.735702,687.477539 C207.811597,695.616224 214.031841,702.487895 221.725712,707.351586 L251.403209,726.112257 L251.403209,726.112257 L268.730916,736.293477 L269.621294,717.989062 L252.821022,701.213138 C246.518492,694.919742 239.158771,689.783186 231.077815,686.037942 L227.966802,684.596095 L227.966802,684.596095 C223.647153,682.868491 220.258679,680.710349 217.801379,678.121668 C215.500189,675.697443 209.529407,668.787256 199.889033,657.391108 C198.723783,656.013639 196.738679,655.669683 195.177926,656.574823 Z" id="Combined-Shape-Copy-3" stroke="#372898" stroke-width="2" fill="#FFFFFF" transform="translate(231.198606, 696.182805) rotate(141.000000) translate(-231.198606, -696.182805) "></path><polygon id="Path-31" fill="#FFFFFF" points="1516.05669 305 1521.05669 332 1544.05669 328.5 1537.55669 294.5"></polygon><path d="M581.045727,394.964532 C579.403685,395.916815 578.473457,397.744174 578.66962,399.632206 L579.687653,409.430627 C583.207048,414.557571 586.080563,419.202165 588.308198,423.364408 C588.24567,423.247576 588.183088,423.131215 588.120453,423.015326 C593.483477,432.93816 602.044051,440.75614 612.411488,445.199213 L627.638145,451.724754 C632.206831,453.682712 637.497722,451.566299 639.45568,446.997612 C639.509988,446.870889 639.561378,446.742935 639.609807,446.613851 L640.742907,443.593697 L640.742907,443.593697 L639.91145,442.624188 C632.827412,434.363935 624.052119,427.721269 614.179062,423.145448 L613.834602,422.985803 L613.834602,422.985803 C609.514953,421.2582 606.126479,419.100057 603.66918,416.511376 C601.36799,414.087152 595.397208,407.176965 585.756834,395.780816 C584.591584,394.403348 582.606479,394.059391 581.045727,394.964532 Z" id="Combined-Shape-Copy-8" stroke="#372898" stroke-width="2" fill="#FFFFFF" transform="translate(609.693312, 424.949286) scale(-1, 1) rotate(141.000000) translate(-609.693312, -424.949286) "></path><path d="M1483.95341,1003.18981 C1476.03041,1100.63769 1462.75463,1153.00007 1448.49323,1162.58511 C1434.23183,1172.17015 1455.60164,1162.83574 1514.23183,1132.48312 L1523.63762,1001.83567 L1483.95341,1003.18981 Z" id="Shape-Copy-3" stroke="#372898" stroke-width="2" fill="#FFFFFF" transform="translate(1483.931362, 1084.014684) rotate(-2.000000) translate(-1483.931362, -1084.014684) "></path><circle id="Oval" fill="#FFFFFF" transform="translate(276.437892, 771.048049) rotate(8.000000) translate(-276.437892, -771.048049) " cx="276.437892" cy="771.048049" r="3.62288136"></circle><rect id="Rectangle" fill="#CAD9FF" x="1169.74641" y="0" width="287" height="287" rx="82"></rect><g id="Group-12" stroke-linecap="round" transform="translate(1215.056687, 73.000000)"><path d="M54,0 L54,150 L0,150 L0,0 L54,0 Z M124,0 L124,150 L69,150 L69,0 L124,0 Z M196,0 L196,150 L142,150 L142,0 L196,0 Z" id="Combined-Shape" fill="#FFFFFF"></path><path d="M124,70 L124,150 L69,150 L69,70 L124,70 Z M55,120 L55,150 L0,150 L0,120 L55,120 Z M197,89 L197,150 L142,150 L142,89 L197,89 Z" id="Combined-Shape" fill="#5554C3"></path></g><circle id="Oval-Copy" fill="#FFFFFF" transform="translate(288.396637, 772.728741) rotate(8.000000) translate(-288.396637, -772.728741) " cx="288.396637" cy="772.728741" r="3.62288136"></circle><path d="M1199.74984,218.492439 L1201.15329,193.155122 C1201.30876,190.348481 1203.71001,188.199277 1206.51666,188.354739 C1206.5409,188.356082 1206.56513,188.357598 1206.58935,188.359288 C1209.53722,188.564924 1211.87682,190.922315 1212.06012,193.871658 L1213.59411,218.554231 L1213.59411,218.554231 L1228.23724,217.026196 C1234.82886,216.338349 1240.73004,221.124306 1241.41789,227.715932 C1241.52556,228.74776 1241.49898,229.789195 1241.3388,230.814186 L1233.60746,280.287268 C1233.60073,280.33033 1233.59259,280.373159 1233.58306,280.415689 L1231.99686,287.496058 L1231.99686,287.496058 L1206.98254,304.882373 L1200.2559,283.284097 C1200.19723,283.095736 1200.16676,282.899731 1200.16547,282.70245 L1199.74682,218.616116 C1199.74655,218.574869 1199.74755,218.533623 1199.74984,218.492439 Z" id="Rectangle" stroke="#372898" stroke-width="2" fill="#FFFFFF" stroke-linecap="round" transform="translate(1221.746413, 246.441187) rotate(31.000000) translate(-1221.746413, -246.441187) "></path><g id="Group-9" transform="translate(1416.245427, 417.000000) scale(-1, 1) translate(-1416.245427, -417.000000) translate(1375.245427, 349.000000)"><polygon id="Path-115" fill="#372898" points="29 0.410623073 44 71.4106231 66.0338983 71.4106231 81 0.410623073"></polygon><path d="M-1.20792265e-13,96.5307537 L16.687282,65.2678001 C18.8996334,61.1230484 20.2792885,56.5853242 20.7484314,51.9105653 L22.8194828,31.2736472 C23.2758053,26.7266372 25.2053687,22.4532608 28.3144378,19.104049 L30.234872,17.0352814 C31.3621025,15.8209843 33.2602856,15.7504028 34.4745828,16.8776333 C34.7205668,17.10598 34.9264885,17.3739862 35.0837695,17.6704876 L40.0758196,27.0813458 L40.0758196,27.0813458 L77.7955719,14.9422686 C80.099449,21.499142 81.4656137,26.7968418 81.8940662,30.8353679 C82.1300836,33.0600321 81.9717211,35.6730091 81.4189786,38.674299 C80.5284497,43.5097088 77.9694996,47.8793586 74.1880522,51.0217917 L54.5214942,67.3649626 C50.7693325,70.4830588 47.9321198,74.5595361 46.3114149,79.1611181 L26.5,135.410623 L26.5,135.410623 L-1.20792265e-13,96.5307537 Z" id="Path-114" stroke="#372898" stroke-width="2" fill="#FFFFFF" stroke-linecap="round"></path></g><g id="Group-6" transform="translate(1349.245427, 219.000000)"><g id="Group-5" transform="translate(209.500000, 484.500000) scale(-1, 1) translate(-209.500000, -484.500000) "><path d="M155.207633,128.590566 L86.6706177,216.33119 C77.4911863,228.082636 79.5762161,245.050465 91.3276621,254.229896 C91.9592317,254.723235 92.612453,255.18821 93.2853857,255.623441 L269.5,369.593092 L269.5,369.593092 L266.5,320.093092 L133,231.093092 L209.863612,131.2115 C214.651326,124.990032 213.489038,116.065327 207.267571,111.277613 C204.958893,109.500976 202.160088,108.476582 199.25,108.343092 C182.156027,107.558964 165.741514,115.105163 155.207633,128.590566 Z" id="Path-52" stroke="#372898" stroke-width="2" fill="#FFFFFF" stroke-linecap="round"></path><g id="Group-4" transform="translate(273.254406, 185.028676) rotate(-5.000000) translate(-273.254406, -185.028676) translate(142.254406, 11.028676)"><path d="M112.290405,94.0805983 L108.909743,94.2970371 L108.909743,94.2970371 L55.8123203,94.2970371 L27.0198731,94.2970371 C20.9447408,94.2970371 16.0198731,99.2219048 16.0198731,105.297037 C16.0198731,105.989173 16.0851981,106.679765 16.2149792,107.359625 L38.8430359,225.896988 L38.8430359,225.896988 L115.26909,235.280927 L140.319278,127.117266 C143.683704,112.590082 134.634501,98.0860655 120.107317,94.7216389 C117.54677,94.1286283 114.913355,93.9126702 112.290405,94.0805983 Z" id="Path-5-Copy-2" stroke="#372898" stroke-width="2" fill="#FFFFFF" stroke-linecap="round" transform="translate(81.114412, 163.521409) scale(-1, 1) rotate(-12.000000) translate(-81.114412, -163.521409) "></path><g id="Group-3" transform="translate(133.776731, 174.000000) scale(-1, 1) translate(-133.776731, -174.000000) translate(6.276731, -0.000000)"><path d="M146.73267,97.3608229 L144.0928,69.9544599 M173.052336,60.4210743 L183.031458,95.5174561" id="Shape-Copy-18" stroke="#372898" stroke-width="2" fill="#FFFFFF" stroke-linecap="round" transform="translate(163.815469, 79.108775) rotate(-10.000000) translate(-163.815469, -79.108775) "></path><g id="Group-2" transform="translate(147.458325, 44.568635) rotate(-6.000000) translate(-147.458325, -44.568635) translate(107.958325, 4.568635)"><g id="Group-10" transform="translate(39.402646, 40.223671) rotate(15.000000) translate(-39.402646, -40.223671) translate(7.902646, 7.723671)"><path d="M55.0516095,45.5263854 L56.1677131,29.5653606 C56.3211309,13.0357973 42.1566738,3.42792986 26.3718268,6.34570151 C9.24051369,9.51236254 5.78047452,18.8955479 2.56460813,36.2134058 C-0.651258257,53.5312637 2.5908146,62.9766621 19.739535,62.9766621 C23.3801876,62.9766621 27.9505308,62.1698362 33.4505647,60.5561845" id="Combined-Shape-Copy" stroke="#372898" stroke-width="2" fill="#FFFFFF" stroke-linecap="round" transform="translate(28.814037, 34.401693) rotate(2.000000) translate(-28.814037, -34.401693) "></path><path d="M45.2793025,50.8735455 C48.6378268,49.0311943 50.9356199,45.2942285 50.9356199,40.9840116 C50.9356199,34.8478706 46.2786509,29.8735455 40.5339886,29.8735455 C38.4729044,29.8735455 36.5518335,30.5138648 34.9356199,31.6184256 M54.5924844,45.6996614 L55.708588,29.7386366 C55.8620057,13.2090733 41.6975486,3.60120589 25.9127017,6.51897753 C8.78138853,9.68563857 5.32134936,19.0688239 2.10548297,36.3866818 C-1.11038342,53.7045398 2.13168943,63.1499381 19.2804098,63.1499381 C22.9210624,63.1499381 27.4914056,62.3431123 32.9914395,60.7294606" id="Combined-Shape-Copy" stroke="#372898" stroke-width="2" fill="#FFFFFF" stroke-linecap="round" transform="translate(28.354911, 34.574969) rotate(2.000000) translate(-28.354911, -34.574969) "></path><path d="M47.3295893,28.5265668 C45.2007835,27.5169852 43.6149613,27.093178 42.5721228,27.2551452 C40.892509,27.5160125 38.8568072,28.5134127 36.4650175,30.2473459 L7.93319411,22.206662 C11.3509692,12.8972178 20.2140045,6.70894909 30.1310068,6.70792219 C32.2013752,6.70770421 34.1577625,6.68393616 36.0001687,6.63661802 C42.1445055,6.47881428 45.5609797,7.54764833 46.2495911,9.84312017 L50.6740565,13.7783765 C54.0725927,16.8011395 56.2156183,20.9872657 56.6807738,25.5117297 L57.3623943,32.1417004 C57.390084,32.4110315 57.421979,32.6799137 57.4580676,32.9482485 L58.6109327,41.5203051 L58.6109327,41.5203051 L54.9729758,41.396736 C56.0047399,39.8194477 55.8846483,37.9599316 54.6127011,35.8181877 C53.3407538,33.6764437 50.9130499,31.2459034 47.3295893,28.5265668 Z" id="Path-9-Copy" fill="#372898" transform="translate(33.272063, 23.922284) rotate(15.000000) translate(-33.272063, -23.922284) "></path></g></g><polygon id="Path-16" fill="#372898" points="150.200638 69.1734401 148.977368 92.5670534 147.788356 90.7182071 143.477368 72.0670534"></polygon><path d="M92.5708448,127.38455 L90.0924831,228.090064 L90.0924831,228.090064 L71.7870667,259.806176 L88.5632367,282.109397 C97.8589008,294.467596 115.412825,296.950272 127.771025,287.654607 C134.681426,282.456701 138.802536,274.357549 138.936382,265.711511 L140.908518,138.316877 C141.131078,123.9401 131.255443,111.371597 117.234063,108.18692 C106.357088,105.716433 95.536832,112.531237 93.0663443,123.408212 C92.7697709,124.713955 92.6037876,126.045955 92.5708448,127.38455 Z M90.8520476,231.03507 L92.2029617,246.476088" id="Combined-Shape" stroke="#372898" stroke-width="2" fill="#FFFFFF" stroke-linecap="round"></path></g></g><path d="M251.931665,913.201822 C274.390252,926.151886 291.654625,935.282464 303.724784,940.593555 C315.794942,945.904645 318.783007,945.904645 312.688978,940.593555 L347.530746,952.330218 C353.221905,954.247319 356.281383,960.415034 354.364281,966.106193 C354.188723,966.62736 353.973944,967.134269 353.721874,967.622595 L353.52586,967.985287 L284.886029,968.19182 C282.758094,968.198223 280.715289,967.356581 279.209449,965.853053 L261.89188,948.562058 L264.381934,967.985287 L243,967.985287 L246.10889,918.669088 C246.297805,915.672342 248.725983,913.321931 251.701711,913.206284 L251.931665,913.201822 Z M45.7108617,812.827773 L45.8953303,813.004457 C52.6188719,838.042155 58.370334,856.706204 63.1497166,868.996603 C67.9290992,881.287002 70.0419799,883.399883 69.4883587,875.335245 L85.8261352,908.27117 C88.4947967,913.651023 86.2969418,920.175633 80.9170889,922.844294 C80.4244297,923.088676 79.9141191,923.295244 79.3905806,923.462302 L78.9955157,923.580161 L30.313785,875.190513 C28.8045799,873.690362 27.955229,871.650751 27.953595,869.522806 L27.9348033,845.050856 L15.9612407,860.545886 L0.841930491,845.426576 L37.9120664,812.753075 C40.1582512,810.773294 43.5243973,810.822331 45.7108617,812.827773 Z" id="Combined-Shape" fill="#372898"></path></g></g><g id="Group-3" transform="translate(1157.134355, 620.705379) rotate(-12.000000) translate(-1157.134355, -620.705379) translate(924.134355, 177.205379)"><polygon id="Path-4" fill="#FFFFFF" points="122.486674 49.2012346 114.843513 73.1351454 148.570739 90.0163243 153.010135 71.5354758"></polygon><g id="Group-Copy-4" transform="translate(318.573760, 802.643113) scale(-1, 1) rotate(-118.000000) translate(-318.573760, -802.643113) translate(264.073760, 727.143113)"><g id="Group-8" transform="translate(54.687948, 75.038927) rotate(83.000000) translate(-54.687948, -75.038927) translate(-15.312052, 29.538927)"><polygon id="Path-9-Copy" stroke="#372898" stroke-width="2" fill="#FFFFFF" stroke-linecap="round" points="139.583868 14.0320442 118.093656 64.6598111 75.6377872 52.0701657 101.52196 0.0484431923"></polygon><path d="M125.597765,47.4283564 L130.444521,77.0665688 L130.578728,85.6571414 L95.8876984,88.3938136 L67.6581811,88.3938136 L14.1194412,88.3938136 C6.63456201,86.4036838 2.57859687,83.7770763 1.95154574,80.5139911 C1.01096904,75.6193634 -1.21313756,66.8392159 38.9419478,59.3369682 C47.4451493,57.7482996 49.9263167,53.5307222 58.5444553,48.0480281 C61.1047397,46.4192244 67.1353225,43.8400418 76.6362036,40.3104803 C79.8879217,44.5821552 87.0149741,47.1613378 98.0173607,48.0480281 C109.019747,48.9347184 118.213215,48.7281612 125.597765,47.4283564 Z" id="Path-13" fill="#372898" transform="translate(66.076114, 64.352147) rotate(2.000000) translate(-66.076114, -64.352147) "></path></g></g><g id="Group-Copy-5" transform="translate(394.000000, 487.083493) scale(-1, 1) rotate(-360.000000) translate(-394.000000, -487.083493) translate(329.000000, 451.083493)"><polygon id="Path-9-Copy" stroke="#372898" stroke-width="2" fill="#FFFFFF" stroke-linecap="round" points="123.725815 3.36028224 121.223739 34.0416855 77.4949252 38.3998945 76.1321192 0.0598197613"></polygon><path d="M123.30271,23.1461632 L129.969501,59.7929123 L129.969501,71.0864617 L95.3780929,71.0864617 L67.1203225,71.0864617 L13.5279993,71.0864617 C6.03562909,69.1022519 1.97560461,66.4834579 1.3479259,63.2300795 C0.406407849,58.350012 -1.81992471,49.595983 38.3753492,42.1160525 C46.887061,40.5321098 49.3707115,36.3270785 57.9974754,30.860694 C60.5603223,29.2367355 66.5969407,26.6652252 76.1073305,23.1461632 C79.3623031,27.4051311 86.4964884,29.9766413 97.5098866,30.860694 C108.523285,31.7447466 117.120893,29.1732363 123.30271,23.1461632 Z" id="Path-13" fill="#372898"></path></g><path d="M273.913121,98.4347672 L185.866579,212.543223 L92.2394394,185.636635 L67.6203826,185.246703 L140.146144,289.121925 C147.734163,299.989887 162.695692,302.648805 173.563653,295.060786 C174.868045,294.150058 176.078653,293.111893 177.177613,291.96161 L300.54936,162.828147 L300.54936,162.828147 L273.913121,98.4347672 Z" id="Path-15" fill="#372898" transform="translate(184.084871, 205.796027) scale(-1, 1) rotate(-16.000000) translate(-184.084871, -205.796027) "></path><path d="M113.230127,92.6354296 L112.403951,65.8577918 M145.95288,47.2689115 L152.707986,95.1621032" id="Shape-Copy-18" stroke="#372898" stroke-width="2" fill="#FFFFFF" stroke-linecap="round" transform="translate(132.417179, 71.635446) scale(-1, 1) rotate(-10.000000) translate(-132.417179, -71.635446) "></path><path d="M92.3371538,208.47008 L208.080957,320.402941 L53.6424048,311.089847 L48.6788036,413.802372 L305.704852,414.67318 C328.348397,414.749897 346.766808,396.455868 346.843525,373.812323 C346.87606,364.209111 343.536604,354.899172 337.407541,347.506113 L152.052256,123.92504 L152.052256,123.92504 L92.3371538,208.47008 Z" id="Path-8-Copy" stroke="#372898" stroke-width="2" fill="#FFFFFF" transform="translate(221.007979, 269.447560) rotate(-90.000000) translate(-221.007979, -269.447560) "></path><polygon id="Path-16" fill="#372898" transform="translate(148.078200, 81.221737) scale(-1, 1) translate(-148.078200, -81.221737) " points="152.0782 69.2217368 150.140909 93.2217368 148.322096 93.2217368 144.0782 72.6134842"></polygon><path d="M72.130673,263.799796 L49.1951242,323.548943 C43.2574896,339.01701 50.9834315,356.36976 66.4514985,362.307395 L311.04957,456.199797 L311.04957,456.199797 L232.310824,711.981206 C226.585371,730.580236 236.245813,750.435541 254.413603,757.409502 L261.309907,760.056745 C280.387189,767.379828 301.788914,757.851166 309.111996,738.773883 C309.234896,738.453719 309.353339,738.131861 309.46729,737.808403 L404.377701,468.398481 C417.691189,430.607202 398.507918,389.084282 361.101391,374.725262 L72.130673,263.799796 L72.130673,263.799796 Z" id="Path-8" stroke="#372898" stroke-width="2" fill="#FFFFFF" stroke-linejoin="round" transform="translate(233.367846, 518.745035) rotate(-9.000000) translate(-233.367846, -518.745035) "></path><path d="M123.260896,76.6446996 L123.260896,76.6446996 L123.260896,76.6446996 C104.171832,76.5684979 87.9325139,90.5423794 85.1612081,109.429361 L59.9971542,280.927216 L59.9971542,280.927216 L49.2143444,302.558512 L167.362478,308.750394 L173.88454,125.501072 C174.813579,99.3980123 154.406003,77.4841663 128.302943,76.5551272 C126.621864,76.4952956 124.93879,76.5251955 123.260896,76.6446996 Z" id="Path-5-Copy-6" fill="#5554C3" transform="translate(112.485406, 190.828109) scale(-1, 1) rotate(-15.000000) translate(-112.485406, -190.828109) "></path><path d="M180.257924,52.1417832 L181.476851,34.6995269 C181.644403,16.63597 166.175013,6.13646335 148.93595,9.32501305 C130.226375,12.7855498 125.674036,26.4131134 122.1619,45.338121 C118.649765,64.2631286 122.342887,72.4048065 141.071473,72.4048065 C145.047529,72.4048065 150.245982,71.1253354 156.666833,68.5663932" id="Combined-Shape-Copy" stroke="#372898" stroke-width="2" fill="#FFFFFF" stroke-linecap="round" transform="translate(151.225777, 40.581340) scale(-1, 1) rotate(-2.000000) translate(-151.225777, -40.581340) "></path><path d="M169.55207,58.0975229 C173.220006,56.0841958 175.729488,52.0004283 175.729488,47.2902103 C175.729488,40.5846168 170.643485,35.1486592 164.369583,35.1486592 C162.118616,35.1486592 160.020562,35.8484021 158.255451,37.0554695 M179.72325,52.4434867 L180.942177,35.0012304 C181.109729,16.9376735 165.640338,6.43816687 148.401276,9.62671657 C129.691701,13.0872533 125.139362,26.7148169 121.627226,45.6398245 C118.115091,64.5648322 121.808213,72.7065101 140.536798,72.7065101 C144.512855,72.7065101 149.711308,71.4270389 156.132159,68.8680967" id="Combined-Shape-Copy" stroke="#372898" stroke-width="2" fill="#FFFFFF" stroke-linecap="round" transform="translate(150.691103, 40.883043) scale(-1, 1) rotate(-2.000000) translate(-150.691103, -40.883043) "></path><path d="M131.750584,12.8325671 C149.47217,1.6050777 163.213465,-2.11933362 172.974471,1.65933318 C182.735477,5.43799999 182.490571,12.2015476 172.239754,21.9499761 L172.239754,21.9499761 L171.694811,21.8260867 L145.069527,28.7220116 L144.707635,40.1351586 C142.888973,38.0964299 140.273635,36.7750818 137.328636,36.6722402 C131.602057,36.4722636 126.797534,40.9553327 126.597433,46.6854551 C126.560642,47.7390167 126.682069,48.7613813 126.940371,49.7296474 L126.940371,49.7296474 L126.126089,49.5624317 L120.124818,49.823324 L120.078961,49.2104063 C118.832359,32.1304673 120.726028,21.9180076 125.759968,18.5730273 C129.564882,16.0447171 132.067871,14.245164 133.268934,13.1743681 Z" id="Combined-Shape" fill="#372898"></path><path d="M118.529413,119.348588 L224.36605,203.444662 L112.118541,314.344184 L145.382403,346.589579 L298.449358,225.36388 C310.571983,215.763024 312.616281,198.152664 303.015425,186.030039 C301.985758,184.729918 300.842615,183.523849 299.599479,182.426059 L200.068075,94.5316657 L200.068075,94.5316657 L196.616699,91.4554689 C177.141678,74.097466 147.282613,75.8136483 129.92461,95.2886694 C123.898031,102.050262 119.942515,110.401972 118.529413,119.348588 L118.529413,119.348588 L118.529413,119.348588 Z" id="Path-6-Copy-5" fill="#5554C3" transform="translate(218.403917, 190.238627) scale(-1, 1) rotate(89.000000) translate(-218.403917, -190.238627) "></path><path d="M348.23144,252.990515 C347.995565,257.491271 350.466679,261.292476 355.64478,264.394128 L360.844685,267.390586 C367.743389,271.365983 376.55859,268.996174 380.533986,262.097469 C380.825269,261.591991 381.085601,261.069298 381.313546,260.532274 C384.847015,252.207633 381.069024,242.586138 372.815394,238.889837 L366.150189,235.904895 L366.150189,235.904895 L370.692112,216.11548 C372.565838,212.208188 371.505442,210.149871 367.510924,209.940527 C353.705177,209.216998 354.799431,216.854955 353.270554,223.71412 C351.046177,233.693577 348.49312,247.997368 348.23144,252.990515 Z" id="Combined-Shape-Copy-4" stroke="#372898" stroke-width="2" fill="#FFFFFF" transform="translate(365.426714, 239.605677) scale(-1, 1) rotate(-15.000000) translate(-365.426714, -239.605677) "></path></g><rect id="Rectangle" stroke="#372898" stroke-width="2" fill="#FFFFFF" stroke-linecap="round" transform="translate(1284.746413, 910.500000) rotate(-5.000000) translate(-1284.746413, -910.500000) " x="1260.74641" y="903" width="48" height="15" rx="7"></rect><circle id="Oval-Copy-4" fill="#FFFFFF" transform="translate(300.355383, 774.409433) rotate(8.000000) translate(-300.355383, -774.409433) " cx="300.355383" cy="774.409433" r="3.62288136"></circle><path d="M1223.74641,608 L1223.74641,1188 L864.746413,1188 L864.746413,608 L1223.74641,608 Z M1045.05669,779 C979.887087,779 927.056687,831.8304 927.056687,897 C927.056687,962.1696 979.887087,1015 1045.05669,1015 C1110.22629,1015 1163.05669,962.1696 1163.05669,897 C1163.05669,831.8304 1110.22629,779 1045.05669,779 Z" id="Combined-Shape" stroke="#372898" stroke-width="2" fill="#FFFFFF" stroke-linecap="round"></path><path d="M100.056687,498 C98.7233539,521 98.3900206,533.166667 99.0566872,534.5 C99.7233539,535.833333 106.223354,535 118.556687,532 L129.556687,498 L100.056687,498 Z" id="Path-7" fill="#FFFFFF"></path><rect id="Rectangle-Copy-2" stroke="#372898" stroke-width="2" fill="#FFFFFF" stroke-linecap="round" x="646.056687" y="953" width="264" height="235"></rect><path d="M264,1087.5 C270.105339,1116.09067 275.272005,1131.09067 279.5,1132.5 C283.727995,1133.90933 288.061328,1122.076 292.5,1097 L397.832745,774.094699 C404.512463,753.617531 393.32742,731.602525 372.850251,724.922807 C368.945102,723.648935 364.863221,723 360.755552,723 L179.056687,723 L179.056687,723 C151.898266,709.625744 127.398266,701.792411 105.556687,699.5 C83.715109,697.207589 75.215109,700.040923 80.0566872,708 L82.4067433,781.187461 C83.0477238,801.149423 99.4154332,817 119.387684,817 L304.5,817 L304.5,817 L264,1087.5 Z" id="Combined-Shape" stroke="#372898" stroke-width="2" fill="#FFFFFF"></path><path d="M368,724.5 L289.345232,723.745 L178.556687,723.268934 C151.398266,709.894678 126.898266,702.061345 105.056687,699.768934 C83.215109,697.476524 67.215109,700.386879 57.0566872,708.5 L59.4067433,781.687461 C60.0477238,801.649423 76.4154332,817.5 96.3876835,817.5 L288.5,817.5 L288.5,817.5 L368,724.5 Z" id="Combined-Shape" fill="#5554C3"></path><path d="M107.176674,532.617045 L73.1267108,526.59894 L73.1267108,526.59894 L38.4935233,523.326791 L50.0616336,663.170312 L35.2374804,686.209193 L128.337376,749.958832 L126.000389,667.163672 L129.463331,560.077627 C129.897378,546.655393 120.400961,534.954349 107.176674,532.617045 Z" id="Path-5-Copy-2" stroke="#372898" stroke-width="2" fill="#FFFFFF" stroke-linecap="round" transform="translate(82.728563, 636.642812) scale(-1, 1) rotate(-12.000000) translate(-82.728563, -636.642812) "></path><path d="M65.7320003,603.770845 L152.199913,689.313325 L152.199913,689.313325 L133.873969,702.687406 C128.967248,706.268279 126.344019,712.195146 126.992684,718.234831 L130.749791,753.21701 L130.749791,753.21701 L210.01804,714.223296 C223.893989,707.397425 229.609207,690.615285 222.783336,676.739336 C221.377162,673.880799 219.493483,671.283192 217.213412,669.058369 L111.701198,566.102818 C99.6317066,554.325781 80.6399441,553.498787 67.5924191,564.182106 C56.1976973,573.512109 54.5239119,590.312818 63.8539147,601.70754 C64.4435089,602.42761 65.0703953,603.116321 65.7320003,603.770845 Z" id="Path-6-Copy-5" stroke="#372898" stroke-width="2" fill="#FFFFFF" stroke-linecap="round" transform="translate(145.126905, 649.318903) scale(-1, 1) rotate(43.000000) translate(-145.126905, -649.318903) "></path><line x1="1451.24543" y1="446.410623" x2="1448.24543" y2="471.910623" id="Path-112" stroke="#372898" stroke-width="2" fill="#FFFFFF" stroke-linecap="round"></line><path d="M88.1182335,529.298196 L85.7775536,502.45283 M116.64585,488.686193 L124.036431,532.585263" id="Shape-Copy-18" stroke="#372898" stroke-width="2" fill="#FFFFFF" stroke-linecap="round" transform="translate(105.287674, 510.891597) scale(-1, 1) rotate(-10.000000) translate(-105.287674, -510.891597) "></path><path d="M27,817 L323,817 L218.556687,1008.5 L279.089019,1112.53302 C279.664345,1124.00577 280.486901,1130.66143 281.556687,1132.5 C282.626473,1134.33857 284.203119,1131.80627 286.286625,1124.90308 L323,1188 L27,1188 L145.056687,1008.5 L27,817 Z" id="Rectangle" stroke="#372898" stroke-width="2" fill="#FFFFFF" stroke-linecap="round"></path><path d="M271.477791,1058.16772 L271.631508,1058.36305 C274.805042,1084.09282 277.902998,1103.37568 280.925375,1116.21163 C283.947752,1129.04759 285.746014,1131.43396 286.320161,1123.37076 L297.915145,1158.25993 C299.809104,1163.95883 296.724589,1170.11406 291.025686,1172.00802 C290.50381,1172.18146 289.969717,1172.315 289.428024,1172.40757 L289.020401,1172.4693 L247.546975,1117.77539 C246.261238,1116.0798 245.704012,1113.94183 245.998546,1111.83436 L249.385774,1087.59796 L235.372246,1101.27579 L222.504278,1084.19942 L263.760922,1057.00306 C266.26271,1055.35388 269.59248,1055.87299 271.477791,1058.16772 Z M395.783809,1055.95219 L396.003482,1056.05384 C410.512192,1077.53847 422.026726,1093.31318 430.547084,1103.37797 C439.067442,1113.44276 441.753096,1114.75264 438.604048,1107.30761 L464.774607,1133.13008 C469.049385,1137.348 469.095478,1144.23269 464.877558,1148.50747 C464.491303,1148.89893 464.076046,1149.26039 463.63542,1149.58879 L463.30025,1149.82885 L401.51664,1119.92476 C399.601258,1118.99769 398.134148,1117.34572 397.439812,1115.33424 L389.454757,1092.20168 L383.178219,1110.75073 L363.960265,1101.3775 L388.373315,1058.41525 C389.854796,1055.80813 393.060914,1054.75934 395.783809,1055.95219 Z" id="Combined-Shape" fill="#372898"></path><g id="Group-11" transform="translate(120.404601, 477.701681) scale(-1, 1) rotate(12.000000) translate(-120.404601, -477.701681) translate(80.404601, 439.201681)"><g id="Group-2" transform="translate(39.000000, 40.000000) rotate(-6.000000) translate(-39.000000, -40.000000) translate(10.000000, 10.000000)" fill="#FFFFFF" stroke="#372898" stroke-linecap="round" stroke-width="2"><path d="M54.8272249,41.3115653 L55.9433285,25.3505405 C56.0967463,8.82097722 41.9322891,-0.786890221 26.1474422,2.13088143 C9.01612907,5.29754246 5.5560899,14.6807278 2.34022351,31.9985857 C-0.875642881,49.3164437 2.36642997,58.761842 19.5151504,58.761842 C23.1558029,58.761842 27.7261462,57.9550162 33.2261801,56.3413644" id="Combined-Shape-Copy" transform="translate(28.589652, 30.186873) rotate(2.000000) translate(-28.589652, -30.186873) "></path><path d="M45.6100857,46.0692377 C48.96861,44.2268864 51.2664031,40.4899206 51.2664031,36.1797038 C51.2664031,30.0435628 46.6094341,25.0692377 40.8647717,25.0692377 C38.8036876,25.0692377 36.8826166,25.709557 35.2664031,26.8141178 M54.9232675,40.8953536 L56.0393711,24.9343288 C56.1927889,8.40476547 42.0283318,-1.20310197 26.2434848,1.71466968 C9.1121717,4.88133071 5.65213253,14.2645161 2.43626614,31.582374 C-0.779600252,48.9002319 2.4624726,58.3456303 19.611193,58.3456303 C23.2518456,58.3456303 27.8221888,57.5388044 33.3222227,55.9251527" id="Combined-Shape-Copy" transform="translate(28.685695, 29.770661) rotate(2.000000) translate(-28.685695, -29.770661) "></path></g><path d="M54.9351521,33.027971 C52.8063463,32.0183894 51.2205241,31.5945822 50.1776856,31.7565494 C47.6582648,32.1478504 45.0858562,34.5548714 44.0705803,34.7487502 C40.3478666,35.4596457 31.2373228,33.397116 16.7389491,28.5611609 C12.0036736,26.9816898 9.44537647,21.8625824 11.0248362,17.1273032 C11.2774205,16.3700462 11.6292115,15.6495882 12.0710284,14.9847312 C16.1543056,8.84011599 23.3450644,5.51263782 30.6718479,6.37732992 C39.4676972,7.41538501 46.1018752,8.83905579 50.5743819,10.6483423 C50.5743819,10.6483423 50.5743819,10.6483423 50.5743819,10.6483423 C63.9048468,16.0409847 72.0416063,29.6211378 70.5090866,43.919154 L70.114554,47.6000902 L70.114554,47.6000902 L65.7682495,55.4249414 C64.3827546,57.9193116 61.2375025,58.8182325 58.7431324,57.4327375 C57.1584731,56.5525404 56.1510327,54.9062296 56.0884647,53.0946068 L56.0884647,53.0946068 L56.0884647,53.0946068 C58.5337489,51.3085602 60.162004,49.8694606 60.9732299,48.777308 C62.0519351,47.3250485 63.6003167,45.6559372 63.469503,43.9335569 C63.1911242,40.2682368 60.3463406,36.6330415 54.9351521,33.027971 Z" id="Path-9-Copy" fill="#372898" transform="translate(39.925938, 38.486952) rotate(9.000000) translate(-39.925938, -38.486952) "></path></g><polygon id="Path-16" fill="#372898" transform="translate(122.716768, 515.984465) scale(-1, 1) translate(-122.716768, -515.984465) " points="124.37685 505 125.466768 526.968931 124.277756 525.120084 119.966768 506.468931"></polygon><line x1="272.556687" y1="303.5" x2="385.556687" y2="303.5" id="Path-116" stroke="#372898" stroke-width="2" fill="#FFFFFF" stroke-linecap="round"></line><line x1="272.556687" y1="340.5" x2="385.556687" y2="340.5" id="Path-116-Copy" stroke="#372898" stroke-width="2" fill="#FFFFFF" stroke-linecap="round"></line><line x1="272.556687" y1="377.5" x2="385.556687" y2="377.5" id="Path-116-Copy-2" stroke="#372898" stroke-width="2" fill="#FFFFFF" stroke-linecap="round"></line><line x1="568.556687" y1="306" x2="560.556687" y2="234.5" id="Path-119" stroke="#372898" stroke-width="2" fill="#FFFFFF" stroke-linecap="round"></line><line x1="167" y1="683.5" x2="167" y2="698.5" id="Path-121" stroke="#372898" stroke-width="2" fill="#FFFFFF" stroke-linecap="round"></line><line x1="286.484379" y1="817" x2="343.659226" y2="817" id="Path-122" stroke="#372898" stroke-width="2" fill="#FFFFFF" stroke-linecap="round"></line><rect id="Rectangle" stroke="#372898" stroke-width="2" fill="#FFFFFF" stroke-linecap="round" x="1374.24543" y="341.410623" width="55" height="8" rx="2"></rect><rect id="Rectangle-Copy-3" stroke="#372898" stroke-width="2" fill="#FFFFFF" stroke-linecap="round" x="1380.24543" y="333.410623" width="43" height="8" rx="2"></rect><path d="M1541.87537,290 C1536.87537,293.666667 1533.70871,299.333333 1532.37537,307 C1530.37537,318.5 1551.87537,354.5 1568.37537,359.5 C1577.88105,362.380508 1580.87537,338.5 1558.87537,305 C1556.67587,301.65076 1551.0092,296.65076 1541.87537,290 Z" id="Path-113" fill="#372898"></path><g id="Group-14" transform="translate(1561.950962, 760.334077) rotate(-22.000000) translate(-1561.950962, -760.334077) translate(1333.950962, 433.334077)"><polygon id="Path-71-Copy-2" fill="#372898" transform="translate(180.166738, 334.909572) scale(-1, 1) rotate(-19.000000) translate(-180.166738, -334.909572) " points="228.097637 360.65708 247.235839 648.728791 199.4363 648.744821 166.568087 445.581978 149.597637 345.54809 113.097637 127.154501 174.996523 21.074323"></polygon><path d="M350.269237,326.13237 L316.574679,376.572141 L316.574679,376.572141 L255.045129,461.497039 L127.552746,621.398804 L89.1326474,592.128906 L238.074679,361.46315 L272.75219,294.521765 L201.574679,143.069562 L185.013821,125.544198 C175.895839,115.895183 171.87656,102.503369 174.17433,89.4281497 L184.020926,33.3971149 L184.020926,33.3971149 L263.483371,29.6438513 L356.173991,274.273988 C362.700484,291.498782 360.500998,310.815722 350.269237,326.13237 Z" id="Path-71-Copy" fill="#5554C3" transform="translate(227.853663, 325.521328) scale(-1, 1) rotate(-19.000000) translate(-227.853663, -325.521328) "></path></g><path d="M980.556687,284 L910.746413,273.5 C907.41308,290.166667 914.246413,300 931.246413,303 C948.246413,306 964.683171,299.666667 980.556687,284 Z" id="Path-120" fill="#5554C3"></path><g id="Group-9-Copy" transform="translate(329.056687, 220.000000) rotate(-360.000000) translate(-329.056687, -220.000000) translate(269.056687, 185.000000)" fill="#FFFFFF" stroke="#372898" stroke-linecap="round" stroke-width="2"><g id="Group-8" transform="translate(0.000000, -0.000000)"><g id="Group-7" transform="translate(0.000000, -0.000000)"><rect id="Rectangle" x="0.195572117" y="0.167648579" width="119" height="69" rx="11"></rect><g id="Group-4" transform="translate(23.195572, 13.167649)"><polyline id="Path" transform="translate(10.000000, 21.000000) rotate(-90.000000) translate(-10.000000, -21.000000) " points="-5 31 2.5 21 10 11 17.5 21 25 31"></polyline><polyline id="Path-Copy" transform="translate(64.000000, 21.000000) rotate(-270.000000) translate(-64.000000, -21.000000) " points="49 31 56.5 21 64 11 71.5 21 79 31"></polyline><line x1="45" y1="0" x2="29" y2="42" id="Path-17"></line></g></g></g></g><g id="Group-7" stroke-linecap="round" transform="translate(404.056687, 190.500000) scale(-1, 1) translate(-404.056687, -190.500000) translate(353.056687, 160.000000)" fill="#FFFFFF" stroke="#372898" stroke-width="2"><path d="M0,45.75 L23.8859957,13.6952086 C26.6192864,10.027157 30.5273956,7.40693109 34.9586644,6.27144119 L55.8479417,0.918670965 C58.0431033,0.356172058 60.3672229,1.08914109 61.8425197,2.80921053 C63.0559481,4.22396389 62.8927419,6.35452617 61.4779886,7.56795456 C61.4001018,7.63475778 61.3192087,7.69797402 61.2355877,7.75744295 C50.4398711,15.4279196 45.2878511,19.2631579 45.7795276,19.2631579 C46.3149606,19.2631579 54.3464567,18.1929825 69.8740157,16.0526316 L92.0758711,3.95033961 C94.5258664,2.61484048 97.5881247,3.33296513 99.1889764,5.61842105 C100.774154,7.88150048 100.34586,10.984093 98.2068424,12.7330698 L81.1557585,26.6749584 C77.4862651,29.6753346 73.300556,31.9816497 68.8038935,33.4808047 C55.0512361,38.0658419 44.9669987,42.1555737 38.5511811,45.75 C31.1362042,49.9041998 25.7818735,54.9875332 22.488189,61 L0,45.75 Z" id="Path-118"></path></g><path d="M91.0566872,480.5 C80.0396121,491.952893 73.8729454,501.11956 72.5566872,508 C71.2404291,514.88044 72.7404291,524.38044 77.0566872,536.5 C62.7233539,551.833333 56.0566872,564.5 57.0566872,574.5 C58.5566872,589.5 73.5566872,593.5 82.0566872,583 C87.7233539,576 90.7233539,563 91.0566872,544 C97.5679706,543.047646 103.401304,536.214313 108.556687,523.5 C113.712071,510.785687 114.378737,502.285687 110.556687,498 C105.670141,497.680991 101.836808,496.347657 99.0566872,494 C96.2765667,491.652343 93.6099,487.152343 91.0566872,480.5 Z" id="Path-124" fill="#372898"></path></g></g></svg> 